<svg width="30" height="29" viewBox="0 0 30 29" fill="none" xmlns="http://www.w3.org/2000/svg">
    <path d="M19.5625 6.6875C21.6458 6.0625 23.1667 5.44792 24.125 4.84375C25.1042 4.23958 25.5938 3.46875 25.5938 2.53125C25.5938 2.23958 25.5312 1.98958 25.4062 1.78125C25.2812 1.55208 25.1042 1.375 24.875 1.25C24.6667 1.125 24.4167 1.0625 24.125 1.0625C23 1.0625 21.9896 1.60417 21.0938 2.6875C20.2188 3.75 19.7083 5.08333 19.5625 6.6875ZM19.4375 12.9062C19.1875 10.8646 19.0625 9.01042 19.0625 7.34375C16.5417 8.13542 14.6562 9.26042 13.4062 10.7188C12.1771 12.1771 11.5625 13.3542 11.5625 14.25C11.5625 15.2292 12.0938 15.7188 13.1562 15.7188C14.9062 15.7188 17 14.7812 19.4375 12.9062ZM17.6562 7.15625L19.0625 6.6875C19.1875 5.08333 19.75 3.67708 20.75 2.46875C21.7708 1.23958 22.8958 0.625 24.125 0.625C24.6667 0.625 25.1146 0.802083 25.4688 1.15625C25.8438 1.48958 26.0312 1.92708 26.0312 2.46875C26.0312 4.51042 23.8542 6.09375 19.5 7.21875C19.625 8.38542 19.7083 9.40625 19.75 10.2812C19.8125 11.1354 19.875 11.8438 19.9375 12.4062C21.1875 11.1562 22.0625 10.2292 22.5625 9.625C23.0833 9 23.5938 8.42708 24.0938 7.90625C24.5938 7.38542 25.1562 6.92708 25.7812 6.53125C26.4271 6.13542 27.0625 5.9375 27.6875 5.9375C28.2292 5.9375 28.6667 6.0625 29 6.3125C29.3333 6.5625 29.5 6.90625 29.5 7.34375C29.5 7.92708 29.2188 8.21875 28.6562 8.21875C28.0104 8.21875 27.6875 7.90625 27.6875 7.28125C27.6875 6.84375 27.7292 6.54167 27.8125 6.375C26.8958 6.375 26.0625 6.71875 25.3125 7.40625C24.5625 8.07292 23.8438 8.84375 23.1562 9.71875C22.8229 10.1354 22.375 10.625 21.8125 11.1875C21.2708 11.7292 20.6771 12.3229 20.0312 12.9688C20.1354 15.1146 20.0104 17.1042 19.6562 18.9375C19.3021 20.7917 18.2917 22.4896 16.625 24.0312C15.6042 24.9896 14.4375 25.8229 13.125 26.5312C11.8333 27.2604 10.5104 27.8125 9.15625 28.1875C7.78125 28.5833 6.46875 28.7812 5.21875 28.7812C3.71875 28.7812 2.5625 28.4583 1.75 27.8125C0.916667 27.1667 0.5 26.2917 0.5 25.1875C0.5 24.1458 0.833333 23.2292 1.5 22.4375C2.16667 21.6458 3.09375 21.0625 4.28125 20.6875C5.46875 20.3333 6.8125 20.2604 8.3125 20.4688L8.1875 20.9062C7.22917 20.8229 6.6875 20.7812 6.5625 20.7812C5.5625 20.7812 4.625 20.9896 3.75 21.4062C2.875 21.8229 2.1875 22.3646 1.6875 23.0312C1.1875 23.7188 0.9375 24.4583 0.9375 25.25C0.9375 26.1875 1.38542 26.9271 2.28125 27.4688C3.15625 28.0312 4.1875 28.3125 5.375 28.3125C7.125 28.3125 8.79167 27.9271 10.375 27.1562C11.9375 26.3854 13.6771 25.1354 15.5938 23.4062C17.3646 21.8021 18.4896 20.1667 18.9688 18.5C19.4479 16.8542 19.625 15.1771 19.5 13.4688C18.4792 14.1979 17.6146 14.75 16.9062 15.125C16.2188 15.5 15.5833 15.7708 15 15.9375C14.4375 16.0833 13.8229 16.1562 13.1562 16.1562C12.1771 16.1562 11.375 15.9062 10.75 15.4062C10.1042 14.8854 9.78125 14.2188 9.78125 13.4062C9.78125 12.1146 10.3854 10.9688 11.5938 9.96875C12.8021 8.96875 14.8229 8.03125 17.6562 7.15625Z" fill="#202020"/>
    </svg>
    