<svg width="102" height="91" viewBox="0 0 102 91" fill="none" xmlns="http://www.w3.org/2000/svg">
    <path d="M33.5 44.5469C42.7188 42.9844 52.6146 39.9375 63.1875 35.4062C73.7604 30.8229 82.6667 25.7448 89.9062 20.1719C97.1979 14.599 100.844 9.70312 100.844 5.48438C100.844 3.03646 98.9167 1.8125 95.0625 1.8125C90.6875 1.8125 85.8438 2.93229 80.5312 5.17188C75.2188 7.35938 69.75 10.5104 64.125 14.625C58.5521 18.6875 53.1615 23.2708 47.9531 28.375C42.7448 33.4792 37.9271 38.8698 33.5 44.5469ZM74.75 48.5312L75.375 49.3125C71.5208 51.9688 68.6562 54.2344 66.7812 56.1094C64.9583 57.9323 62.5625 61.1094 59.5938 65.6406C56.1042 70.6927 52.9271 74.8594 50.0625 78.1406C47.1979 81.3698 43.2656 84.2083 38.2656 86.6562C33.2656 89.0521 27.3021 90.25 20.375 90.25C15.0625 90.25 10.8438 89.2865 7.71875 87.3594C4.64583 85.3802 3.10938 82.776 3.10938 79.5469C3.10938 77.8281 3.52604 76.4219 4.35938 75.3281C5.24479 74.1823 6.36458 73.6094 7.71875 73.6094C8.55208 73.6094 9.25521 73.8698 9.82812 74.3906C10.4531 74.8594 10.7656 75.5104 10.7656 76.3438C10.7656 76.9688 10.4531 77.5417 9.82812 78.0625C9.25521 78.5312 8.65625 78.7656 8.03125 78.7656C7.04167 78.7656 6.07812 77.9583 5.14062 76.3438C4.61979 77.4375 4.35938 78.5573 4.35938 79.7031C4.35938 82.5677 5.81771 84.8594 8.73438 86.5781C11.651 88.2969 15.4792 89.1562 20.2188 89.1562C26.9375 89.1562 32.0677 88.0104 35.6094 85.7188C39.151 83.375 42.7188 79.9896 46.3125 75.5625C48.2917 73.1146 50.4531 70.5625 52.7969 67.9062C55.1406 65.25 56.8594 63.3229 57.9531 62.125C54.0469 64.6771 50.2448 66.7344 46.5469 68.2969C42.849 69.8073 38.9167 70.5625 34.75 70.5625C30.7396 70.5625 27.5365 69.5208 25.1406 67.4375C22.7969 65.3542 21.625 62.5677 21.625 59.0781C21.625 55.5365 22.849 51.3177 25.2969 46.4219H24.5156C14.4635 46.4219 7.97917 44.4427 5.0625 40.4844C2.14583 36.474 0.6875 32.6458 0.6875 29C0.6875 25.3021 1.85938 21.7344 4.20312 18.2969C6.54688 14.8594 9.75 11.8385 13.8125 9.23438C17.875 6.57812 22.5885 4.49479 27.9531 2.98438C33.3177 1.47396 38.9948 0.71875 44.9844 0.71875C48.1094 0.71875 51.1042 0.927083 53.9688 1.34375L53.8125 2.28125C50.7917 1.96875 47.901 1.8125 45.1406 1.8125C39.3073 1.8125 33.8125 2.56771 28.6562 4.07812C23.5 5.53646 18.9167 7.59375 14.9062 10.25C10.9479 12.8542 7.84896 15.875 5.60938 19.3125C3.36979 22.6979 2.25 26.2396 2.25 29.9375C2.25 34.4688 3.63021 37.9062 6.39062 40.25C9.20312 42.5417 12.1719 43.9479 15.2969 44.4688C18.4219 44.9896 21.9115 45.3281 25.7656 45.4844C26.7031 44.2344 27.849 42.6458 29.2031 40.7188C30.6094 38.7396 32.1719 36.8385 33.8906 35.0156C35.6094 33.1927 37.4323 31.3958 39.3594 29.625C41.3385 27.8542 43.7604 25.9271 46.625 23.8438C53.5 18.8438 59.4115 14.7812 64.3594 11.6562C69.3594 8.53125 74.4896 5.92708 79.75 3.84375C85.0625 1.76042 90.1667 0.71875 95.0625 0.71875C99.6458 0.71875 101.938 2.25521 101.938 5.32812C101.938 8.76562 99.75 12.6198 95.375 16.8906C91.0521 21.1615 85.4271 25.224 78.5 29.0781C71.625 32.9323 64.125 36.3438 56 39.3125C47.875 42.2812 40.1667 44.3906 32.875 45.6406C30.0625 49.9635 28.0833 53.401 26.9375 55.9531C25.8438 58.5052 25.2969 60.7188 25.2969 62.5938C25.2969 64.625 26.1562 66.2917 27.875 67.5938C29.6458 68.8438 31.9375 69.4688 34.75 69.4688C39.0729 69.4688 43.3438 68.4792 47.5625 66.5C51.8333 64.5208 56.1562 61.9688 60.5312 58.8438C64.9062 55.6667 69.6458 52.2292 74.75 48.5312Z" fill="#202020"/>
    </svg>
    