<svg width="124" height="91" viewBox="0 0 124 91" fill="none" xmlns="http://www.w3.org/2000/svg">
    <path d="M106 16.8125C102.146 19.7292 98.6562 23.2969 95.5312 27.5156C92.4583 31.7344 89.0729 37.1771 85.375 43.8438C82.8229 48.4792 80.3229 52.6458 77.875 56.3438C75.4271 60.0417 72.276 63.8958 68.4219 67.9062C64.5677 71.8646 59.8542 75.5365 54.2812 78.9219C48.7083 82.2552 42.0677 84.9635 34.3594 87.0469C39.724 88.4531 44.5677 89.1562 48.8906 89.1562C57.5885 89.1562 65.6354 87.0729 73.0312 82.9062C80.4271 78.6875 86.7292 73.3229 91.9375 66.8125C97.1979 60.3021 101.234 53.5573 104.047 46.5781C106.859 39.599 108.266 33.5312 108.266 28.375C108.266 24.625 107.51 20.7708 106 16.8125ZM30.375 86.8906C26.0521 85.3802 22.5104 84.2865 19.75 83.6094C16.9896 82.9323 14.0208 82.5938 10.8438 82.5938C8.03125 82.5938 5.73958 82.9323 3.96875 83.6094C2.25 84.2865 1.39062 85.1719 1.39062 86.2656C1.39062 88.1927 4.59375 89.1562 11 89.1562C18.0312 89.1562 24.4896 88.401 30.375 86.8906ZM75.4531 13.2969H76.625C76.625 18.6615 75.401 23.9219 72.9531 29.0781C70.5052 34.2344 67.25 38.9479 63.1875 43.2188C59.125 47.4896 54.776 50.849 50.1406 53.2969C45.5573 55.7448 41.2083 56.9688 37.0938 56.9688C28.9688 56.9688 24.9062 52.776 24.9062 44.3906C24.9062 39.026 26.4167 33.7135 29.4375 28.4531C32.4583 23.1927 36.625 18.4531 41.9375 14.2344C47.25 10.0156 53.1875 6.70833 59.75 4.3125C66.3125 1.91667 73.0052 0.71875 79.8281 0.71875C86.3906 0.71875 91.7552 1.83854 95.9219 4.07812C100.089 6.26562 103.63 9.88542 106.547 14.9375C108.682 13.0625 111.156 11.2917 113.969 9.625C116.833 7.90625 119.62 6.52604 122.328 5.48438L123.031 6.26562C117.927 8.34896 112.589 11.6042 107.016 16.0312C108.057 18.6875 108.708 20.849 108.969 22.5156C109.281 24.1823 109.438 26.2396 109.438 28.6875C109.438 34 108.031 40.1979 105.219 47.2812C102.406 54.3125 98.3177 61.1354 92.9531 67.75C87.6406 74.3125 81.2083 79.7031 73.6562 83.9219C66.1562 88.1406 57.901 90.25 48.8906 90.25C42.5365 90.25 36.9896 89.4167 32.25 87.75C25.8438 89.4167 19.2812 90.25 12.5625 90.25C4.38542 90.25 0.296875 88.9219 0.296875 86.2656C0.296875 84.7552 1.20833 83.5833 3.03125 82.75C4.90625 81.9167 7.45833 81.5 10.6875 81.5C14.3333 81.5 17.7188 81.8906 20.8438 82.6719C24.0208 83.401 27.8229 84.651 32.25 86.4219C37.0938 85.0156 41.3646 83.401 45.0625 81.5781C48.7604 79.7031 52.1719 77.4115 55.2969 74.7031C58.4219 71.9948 61.3385 68.974 64.0469 65.6406C66.8073 62.2552 70.0885 57.776 73.8906 52.2031C77.7448 46.474 81.7031 41.1094 85.7656 36.1094C89.8802 31.1094 93.6042 26.9167 96.9375 23.5312C100.323 20.1458 103.188 17.4896 105.531 15.5625C102.823 10.7708 99.4635 7.28125 95.4531 5.09375C91.4427 2.90625 86.3906 1.8125 80.2969 1.8125C72.9531 1.8125 65.9479 3.34896 59.2812 6.42188C52.6667 9.49479 46.9375 13.4271 42.0938 18.2188C37.3021 22.9583 33.5521 27.8802 30.8438 32.9844C28.1875 38.0885 26.8594 42.4635 26.8594 46.1094C26.8594 49.1302 27.7448 51.526 29.5156 53.2969C31.3385 55.0156 33.7604 55.875 36.7812 55.875C40.4792 55.875 44.5677 54.6771 49.0469 52.2812C53.5781 49.8333 57.8229 46.6042 61.7812 42.5938C65.7917 38.5833 69.0729 33.9479 71.625 28.6875C74.1771 23.4271 75.4531 18.2969 75.4531 13.2969Z" fill="#202020"/>
    </svg>
    